<svg xmlns="http://www.w3.org/2000/svg" xmlns:xlink="http://www.w3.org/1999/xlink" width="68" height="68" viewBox="0 0 68 68">
  <defs>
    <clipPath id="clip-path">
      <rect id="Rectangle_529" data-name="Rectangle 529" width="64.464" height="67.608" stroke="rgba(0,0,0,0.16)" stroke-width="1"/>
    </clipPath>
  </defs>
  <g id="bookappt_icon" transform="translate(-2514 423)">
    <rect id="Rectangle_3008" data-name="Rectangle 3008" width="68" height="68" rx="3" transform="translate(2514 -423)" fill="#eceef3" opacity="0"/>
    <g id="Group_10679" data-name="Group 10679" transform="translate(2516 -423)" clip-path="url(#clip-path)">
      <path id="Path_1763" data-name="Path 1763" d="M13.167,4.2c0-1.1-.019-1.944.005-2.785A1.284,1.284,0,0,1,14.573,0a1.3,1.3,0,0,1,1.411,1.41c.034.841.007,1.684.007,2.641H35.6a9.511,9.511,0,0,1,.055-2.533,2.341,2.341,0,0,1,1.3-1.46c.94-.251,1.438.528,1.514,1.416.072.831.015,1.673.015,2.693,1.81,0,3.493.088,5.163-.017a7.411,7.411,0,0,1,7.927,7.84c-.182,7.6-.034,15.215-.073,22.823-.005,1.011.263,1.408,1.3,1.7A15.784,15.784,0,0,1,64.453,52.5,15.954,15.954,0,0,1,51.765,67.277,15.779,15.779,0,0,1,34.433,58.7a1.837,1.837,0,0,0-1.995-1.225C24.22,57.514,16,57.5,7.783,57.5,3.005,57.494.02,54.5.012,49.63q-.028-17.048,0-34.1a43.524,43.524,0,0,1,.2-5.478,6.838,6.838,0,0,1,6.446-5.84c2.1-.086,4.206-.016,6.51-.016m19.84,50.462c-.588-4.96.359-9.334,3.522-13.069A16.008,16.008,0,0,1,48.6,35.873V17.793H3.033c-.025.493-.063.906-.063,1.319V49.666c0,3.334,1.675,4.987,5.03,4.99q9.856.01,19.712,0h5.3m15.68-15.819A12.932,12.932,0,1,0,61.6,51.789,12.931,12.931,0,0,0,48.692,38.837M16,7.1c0,.915-.007,1.705,0,2.495a1.425,1.425,0,1,1-2.834,0c.009-.825,0-1.649,0-2.543-2.261,0-4.321-.057-6.377.017a4.014,4.014,0,0,0-3.715,3.292,38.489,38.489,0,0,0-.034,4.365H48.611c.03-.44.075-.8.076-1.17a24.871,24.871,0,0,0-.038-2.812A4.116,4.116,0,0,0,45.216,7.12c-2.179-.161-4.38-.039-6.715-.039,0,.933.041,1.767-.011,2.6-.058.919-.628,1.641-1.507,1.447a2.327,2.327,0,0,1-1.295-1.489A9.563,9.563,0,0,1,35.633,7.1Z"/>
      <path id="Path_1764" data-name="Path 1764" d="M54.462,106.594c3.52,0,7.04-.029,10.559.03a2.578,2.578,0,0,1,1.726.653c.745.833.044,2.066-1.2,2.187-.837.081-1.688.026-2.532.026H44.572c-.375,0-.753.022-1.126-.012-.9-.082-1.562-.515-1.556-1.475s.678-1.391,1.593-1.4c3.191-.014,6.382-.011,9.574-.014h1.408" transform="translate(-30.083 -76.548)" fill="#ec8046"/>
      <path id="Path_1765" data-name="Path 1765" d="M50.021,139.875c2.112,0,4.225.019,6.337-.008,1.006-.013,1.715.393,1.719,1.408s-.7,1.452-1.7,1.45c-4.272-.007-8.543,0-12.815-.006-.991,0-1.671-.486-1.65-1.5.02-.958.694-1.35,1.631-1.345,2.159.012,4.319,0,6.478,0" transform="translate(-30.1 -100.448)" fill="#ec8046"/>
      <path id="Path_1766" data-name="Path 1766" d="M148.309,172.487l7.459-7.114c.339-.324.664-.663,1.015-.973a1.433,1.433,0,0,1,2.23-.022,1.406,1.406,0,0,1-.253,2.114q-3.605,3.454-7.219,6.9c-.678.647-1.35,1.3-2.041,1.935a1.481,1.481,0,0,1-2.246-.008c-1.743-1.7-3.456-3.438-5.172-5.169a1.4,1.4,0,0,1-.121-2.121c.736-.771,1.523-.54,2.2.161,1.366,1.407,2.723,2.823,4.145,4.3" transform="translate(-101.641 -117.676)"/>
    </g>
  </g>
</svg>
