<svg xmlns="http://www.w3.org/2000/svg" xmlns:xlink="http://www.w3.org/1999/xlink" width="68" height="68" viewBox="0 0 68 68">
  <defs>
    <clipPath id="clip-path">
      <rect id="Rectangle_556" data-name="Rectangle 556" width="54" height="64"/>
    </clipPath>
  </defs>
  <g id="bookhelathcheck_icon" transform="translate(-2916 423)">
    <rect id="Rectangle_3012" data-name="Rectangle 3012" width="68" height="68" rx="3" transform="translate(2916 -423)" fill="#eceef3" opacity="0"/>
    <g id="Group_12205" data-name="Group 12205" transform="translate(1681 -1629)">
      <g id="Group_10697" data-name="Group 10697" transform="translate(1242 1208)" clip-path="url(#clip-path)">
        <path id="Path_1800" data-name="Path 1800" d="M42.507,10.975V15.9c.3.048.742.086,1.167.194a4.722,4.722,0,0,1,3.546,4.815c.035,6.041.015,12.082.009,18.123,0,.681-.019,1.45-.951,1.444-.911-.006-.948-.736-.947-1.44,0-5.958-.012-11.915.013-17.873.005-1.257-.247-2.371-1.434-2.938a3.532,3.532,0,0,0-3.618.095,6.228,6.228,0,0,1-3.031.828q-10.263.1-20.527,0a6.316,6.316,0,0,1-3.026-.847,3.528,3.528,0,0,0-3.618-.056,2.791,2.791,0,0,0-1.4,2.833q.027,15.5.013,31c0,2.068,1.071,3.171,3.112,3.172q15.21.014,30.42,0c2.027,0,3.086-1.117,3.092-3.195q.012-4.061,0-8.124c0-.7.015-1.433.939-1.443s.956.748.957,1.433c.007,2.75.044,5.5-.009,8.248-.058,3.023-1.9,4.911-4.9,4.921q-15.272.053-30.544,0A4.614,4.614,0,0,1,6.816,52.1q-.047-15.56,0-31.121c.008-2.954,1.5-4.482,4.845-5.138-.047-.77-.114-1.548-.137-2.328s-.005-1.574-.005-2.615a32.588,32.588,0,0,0-5.192.346c-2.8.63-4.431,3.019-4.473,6.113-.034,2.541-.007,5.082-.008,7.624a2.489,2.489,0,0,1-.033.988A5.516,5.516,0,0,1,.99,26.993c-.315-.351-.9-.7-.9-1.054-.062-3.29-.172-6.59.022-9.87.229-3.88,3.769-6.917,7.867-7.024,1.191-.031,2.384,0,3.6,0,.92-2.906,2.915-4.026,5.784-3.835,1.186.079,2.382.013,3.537.013,1.34-3.6,3.23-5.2,6.068-5.218,2.909-.018,4.77,1.533,6.188,5.218,1.116,0,2.271.07,3.415-.014,2.906-.212,4.966.869,5.867,3.743,1.7.09,3.361.053,4.981.288a7.723,7.723,0,0,1,6.57,7.717q.031,19.56,0,39.12a7.85,7.85,0,0,1-7.872,7.918q-19.105.021-38.211,0A7.854,7.854,0,0,1,.05,56.052C.027,47.511.043,38.971.043,30.43c0-.674-.079-1.444.9-1.453s.9.779.9,1.442q.007,12.5,0,25c0,2.362.713,4.433,2.782,5.63a7.853,7.853,0,0,0,3.724,1.032c12.448.074,24.9.063,37.345.035,4-.009,6.488-2.548,6.494-6.569q.029-19,0-37.995c-.006-4.085-2.525-6.561-6.593-6.572H42.51M26.89,17.258c3.5,0,7,.007,10.5,0,2.123-.006,3.23-1.151,3.241-3.325.006-1.207.009-2.414,0-3.62a2.992,2.992,0,0,0-3.215-3.274q-2.407-.04-4.817,0c-.907.018-1.3-.314-1.405-1.284a4.187,4.187,0,0,0-8.348-.007c-.1.965-.486,1.309-1.4,1.291-1.6-.032-3.211-.028-4.817,0A2.992,2.992,0,0,0,13.407,10.3q-.013,1.81,0,3.62c.011,2.228,1.115,3.329,3.356,3.333q5.064.009,10.128,0"/>
        <path id="Path_1801" data-name="Path 1801" d="M83.241,94.2c2.3.476,5.651-1.065,5.789,3.16.051,1.561.583,3.553-1.217,4.37-1.344.61-3.008.5-4.6.719-.411,1.653.745,3.937-1.113,5.108a7.017,7.017,0,0,1-4.02.618c-3.956-.293-2.416-3.568-2.924-5.939-.914,0-1.884.011-2.853,0a2.666,2.666,0,0,1-2.939-2.916c-.142-4.474.338-4.986,4.695-5.02.361,0,.722-.032,1.1-.05.469-1.8-.7-4.081,1.155-5.264a7.072,7.072,0,0,1,3.9-.614c4.091.186,2.537,3.536,3.025,5.831m-11.961,4.07c0,2.024,0,2.024,2,2.024h.865c3.289-.042,3.046-.077,3.071,3.147.025,3.283-.587,2.773,2.909,2.852.9.02,1.147-.361,1.115-1.192-.044-1.122.007-2.247-.015-3.37-.019-1,.448-1.45,1.421-1.438,1.111.014,2.224-.029,3.334.012.815.03,1.2-.212,1.183-1.123-.081-3.529.428-2.916-2.822-2.941-3.219-.024-3.1.224-3.126-3.1-.023-3.388.7-2.849-3.092-2.907-.712-.011-.933.337-.922,1,.02,1.206,0,2.413,0,3.62.006.924-.417,1.386-1.348,1.376-1.153-.012-2.307.039-3.458-.014-.881-.041-1.2.331-1.12,1.179.028.288,0,.582,0,.873" transform="translate(-52.192 -66.258)" fill="#ec8046"/>
        <path id="Path_1802" data-name="Path 1802" d="M79.59,178.018h8.153c.738,0,1.538.028,1.519,1-.018.865-.77.937-1.471.936q-8.276-.006-16.552,0c-.74,0-1.539-.054-1.521-1.011.017-.869.771-.924,1.473-.921,2.8.01,5.6,0,8.4,0" transform="translate(-52.472 -133.508)" fill="#ec8046"/>
        <path id="Path_1803" data-name="Path 1803" d="M79.361,199.474c-2.755,0-5.511-.009-8.266.006-.719,0-1.419-.078-1.382-.979.033-.82.733-.867,1.384-.867q8.39.005,16.779,0c.652,0,1.351.048,1.382.869.034.9-.666.981-1.385.977-2.838-.015-5.675-.006-8.513-.006" transform="translate(-52.467 -148.223)" fill="#ec8046"/>
        <path id="Path_1804" data-name="Path 1804" d="M100.881,48.888a17.392,17.392,0,0,1-2.539-1.415c-.257-.2-.128-.907-.175-1.382.435-.006,1.012-.2,1.278.014a2.045,2.045,0,0,0,2.89.018c.274-.216.845-.045,1.281-.052-.032.475.116,1.193-.131,1.381a18.772,18.772,0,0,1-2.6,1.437" transform="translate(-73.884 -34.504)" fill="#ec8046"/>
        <path id="Path_1805" data-name="Path 1805" d="M106.147,19.78a1.493,1.493,0,0,1-1.566,1.549,1.47,1.47,0,0,1-1.454-1.659,1.451,1.451,0,0,1,1.5-1.486,1.493,1.493,0,0,1,1.519,1.6" transform="translate(-77.615 -13.635)"/>
        <path id="Path_1806" data-name="Path 1806" d="M76.153,41.244a4.633,4.633,0,0,1-.653,1.474c-.181.181-1.1-.012-1.109-.1a14.03,14.03,0,0,1-.023-2.706c.009-.1.947-.324,1.1-.159a5.283,5.283,0,0,1,.69,1.488" transform="translate(-55.931 -29.773)"/>
        <path id="Path_1807" data-name="Path 1807" d="M140.348,41.166a6.216,6.216,0,0,1-.814,1.49c-.146.15-1-.069-1.011-.172a14.566,14.566,0,0,1-.012-2.714c.01-.112.888-.343,1-.208a7.838,7.838,0,0,1,.835,1.6" transform="translate(-104.205 -29.64)"/>
      </g>
    </g>
  </g>
</svg>
